<?xml version="1.0" standalone="no"?><svg data-noselect="" 
  viewBox="132 37.04913872684 696.15113699207 522" 
  width="696.15113699207" 
  height="522" 
  ref="svg_canvas" 
  preserveAspectRatio="none" 
  version="1.1" xmlns="http://www.w3.org/2000/svg" 
  style="background: #ffffff;">
    <defs></defs>
    <g id="shape_ykcaoUPp16" class=""  ref="shape_ykcaoUPp16" key="shape_ykcaoUPp16" transform="translate(212,229.85271317829) rotate(0,75.774914149244,65.495371532098) scale(1,1)" style="cursor:move;display:inline;opacity:1;" filter="">
            <g style="display:inline"><rect fill="rgba(0,0,0,0)" width="171.54982829848785" height="150.99074306419686" x="-10" y="-10"></rect><svg version="1.1" id="图层_1" xmlns="http://www.w3.org/2000/svg" xmlns:xlink="http://www.w3.org/1999/xlink" x="0px" y="0px" width="151.54982829848785" height="130.99074306419686" viewBox="0 0 154.8 133.8" enable-background="new 0 0 154.8 133.8" xml:space="preserve" class="style-removed" preserveAspectRatio="none" data-parent="shape_ykcaoUPp16">
<g>
	<g>
		<g>
			<path fill="#09D6AF" d="M134.2,10.4C125.9,3.8,115.5,0,104.5,0C93.4,0,83.2,3.8,75.1,10.2c19.9-7.7,39.7,4.2,47.5,9.8
				C124.9,15.3,129.1,11.8,134.2,10.4z" stroke-width="0"></path>
			<path fill="#2E3192" d="M68.1,17c-2.4,2.8-4.5,6-6.2,9.3c1.2-0.3,2.5-0.4,3.9-0.4c4.7,0,8.9,1.8,12.1,4.6
				C83.6,21.8,93.4,16,104.5,16c3.1,0,6,0.5,8.9,1.3C102.3,11.2,84.5,5.4,68.1,17z" stroke-width="0"></path>
			<path fill="#09D6AF" d="M139.1,12.4c-0.8,0-1.6,0.1-2.3,0.2c-5.3,0.8-9.8,4.3-12,9c-0.9,2-1.4,4.2-1.4,6.5
				c0,8.7,7,15.7,15.7,15.7c8.7,0,15.7-7,15.7-15.7C154.8,19.4,147.7,12.4,139.1,12.4z M139.1,36.7c-4.7,0-8.6-3.9-8.6-8.6
				s3.9-8.6,8.6-8.6c4.7,0,8.6,3.9,8.6,8.6S143.8,36.7,139.1,36.7z" stroke-width="0"></path>
			<path fill="#09D6AF" d="M51.3,32.9c-0.2,0-0.4,0-0.6,0C24.6,32.9,3,52.6,0,78c1.6-4.8,4.1-9,7.5-12.8
				c11.3-12.4,29.5-15.8,40.4-16.8c-0.3-1.4-0.5-2.8-0.5-4.2C47.4,40,48.9,36,51.3,32.9z" stroke-width="0"></path>
			<path fill="#09D6AF" d="M65.8,28.5c-1.9,0-3.7,0.4-5.4,1c-2.2,0.8-4.1,2-5.7,3.6c-2.9,2.8-4.7,6.8-4.7,11.2c0,1.4,0.2,2.7,0.5,4
				c1.8,6.7,7.9,11.7,15.2,11.7c8.7,0,15.7-7,15.7-15.7c0-4.5-1.9-8.5-4.9-11.4C73.7,30.2,69.9,28.5,65.8,28.5z M65.8,52.8
				c-4.7,0-8.6-3.9-8.6-8.6s3.9-8.6,8.6-8.6c4.7,0,8.6,3.9,8.6,8.6S70.5,52.8,65.8,52.8z" stroke-width="0"></path>
		</g>
	</g>
	<path fill="#2E3192" d="M33,105.4c-7-4-13.9-10.5-15.9-20.5c-1.4-7.4,0.6-15.1,5.1-21.3c2.8-3.9,6.5-7.3,10.7-9.8
		C24.6,56.1,15.8,60.1,9.5,67c-3.5,3.8-6,8.3-7.4,13.4c-2.2,7.8-1.7,16,1.6,23.4c1.3,2.9,2.9,5.5,4.6,8c10,14.1,27,22,49.8,22H96
		l12.8-22.3H56.7C48.4,111.5,40.2,109.5,33,105.4z" stroke-width="0"></path>
</g>
</svg></g>
        </g><g id="shape_QpAy4djDmu" class="brand_name"  ref="shape_QpAy4djDmu" key="shape_QpAy4djDmu" transform="translate(206.66911298694998,24.627269080559984) rotate(0,276.21142407715,280.72) scale(1,1)" style="cursor:move;display:inline;opacity:1;" filter="">
            <g style="display:inline"><svg xmlns="http://www.w3.org/2000/svg" version="1.1" xmlns:xlink="http://www.w3.org/1999/xlink" width="651.72" height="561.44" viewBox="0 0 651.72 561.44" preserveAspectRatio="none" data-parent="shape_QpAy4djDmu"><rect fill="rgba(0,0,0,0)" width="345" height="92" x="76.68" y="234.72000000000003"></rect><g data-width="344.07945749266395" transform="translate(76.68, 0)"><path d="M47.54-28.45L60.65-28.45L60.27-26.07L66.25-26.07L65.18-18.63L59.27-18.63L58.43-12.73L44.78-7.59L63.95 0.69L39.80 0.69L31.90-2.68L22.85 0.69L-0.31 0.69L20.78-7.51L8.97-12.65L9.82-18.63L3.99-18.63L5.06-26.07L10.81-26.07L11.20-28.45L24.31-28.45L23.92-26.07L47.23-26.07L47.54-28.45ZM8.59-29.91L10.43-43.17L6.13-43.17L7.21-51.07L32.05-51.07L32.21-52.30L30.29-54.44L48.69-54.44L48.23-51.07L70.93-51.07L69.86-43.17L23.92-43.17L23.08-36.96L64.79-36.96L63.80-29.91L8.59-29.91ZM33.51-12.42L46.01-17.33L46.16-18.63L22.85-18.63L22.70-17.18L33.51-12.42Z" transform="translate(0 306.72) " fill="#2e3192" stroke="#2e3192" stroke-width="0.128" data-glyph-w="73.96878749853279" data-glyph-h="99.68400000000001" data-glyph-ascender="76.68" data-glyph-descender="-23.004000000000005"></path><path d="M35.35-22.47L39.18-50.15L36.73-53.06L70.24-53.06L65.94-22.47L35.35-22.47ZM26.68-23.16L26.22-40.95L23.69-22.47L13.50-22.47L16.10-41.25L10.66-23.16L3.37-23.16L9.28-42.86L6.13-42.86L7.13-50.15L17.33-50.15L17.56-51.61L15.03-54.52L28.14-54.52L27.53-50.15L37.73-50.15L36.73-42.86L33.51-42.86L33.97-23.16L26.68-23.16ZM51.45-12.27L49.84-0.61L16.26-0.61L18.86-19.55L31.98-19.55L30.60-9.35L48.16-9.35L51.45-12.27ZM17.33-18.10L11.96-0.61L0.23-0.61L5.67-18.10L17.33-18.10ZM52.68-0.61L52.30-18.10L63.95-18.10L64.41-0.61L52.68-0.61ZM35.89-10.81L35.89-21.01L47.54-21.01L47.54-10.81L35.89-10.81ZM49.00-47.23L48.62-44.78L58.81-44.78L59.20-47.23L49.00-47.23ZM46.31-28.29L56.51-28.29L56.82-30.75L46.62-30.75L46.31-28.29ZM47.85-38.95L47.46-36.58L57.66-36.58L58.05-38.95L47.85-38.95Z" transform="translate(73.96878749853279 306.72) " fill="#2e3192" stroke="#2e3192" stroke-width="0.128" data-glyph-w="73.96878749853279" data-glyph-h="99.68400000000001" data-glyph-ascender="76.68" data-glyph-descender="-23.004000000000005"></path><path d="M34.66-39.57L44.17-39.57L45.62-49.54L43.02-54.52L60.88-54.52L58.74-39.57L67.94-39.57L66.56-29.68L57.36-29.68L54.52-10.05L65.41-10.05L64.10-0.92L27.76-0.92L29.06-10.05L40.03-10.05L42.79-29.68L33.28-29.68L34.66-39.57ZM28.83-19.55L27.14-7.82L21.24-15.26L19.02 0.61L7.51 0.61L10.05-17.33L2.61-17.33L18.56-38.11L6.36-38.11L7.28-44.93L30.37-44.93L29.06-35.89L22.93-27.53L22.85-26.99L28.83-19.55ZM26.15-54.37L28.14-46.62L15.80-46.62L14.11-52.53L12.42-54.37L26.15-54.37Z" transform="translate(147.93757499706558 306.72) " fill="#2e3192" stroke="#2e3192" stroke-width="0.128" data-glyph-w="73.96878749853279" data-glyph-h="99.68400000000001" data-glyph-ascender="76.68" data-glyph-descender="-23.004000000000005"></path><path d="M8.74-48.00L50.00-48.00Q51.07-48.00 51.99-47.62Q52.91-47.23 53.56-46.54Q54.21-45.85 54.44-44.93Q54.67-44.01 54.37-42.86L54.37-42.86L49.23-4.60L7.97-4.60Q6.90-4.60 5.98-4.98Q5.06-5.37 4.41-6.06Q3.76-6.75 3.53-7.71Q3.30-8.66 3.60-9.74L3.60-9.74L8.74-48.00ZM39.64-40.64L22.01-40.64L18.33-11.96L35.27-11.96L39.64-40.64Z" transform="translate(221.9063624955984 306.72) " fill="#2e3192" stroke="#2e3192" stroke-width="0.128" data-glyph-w="61.39326749853279" data-glyph-h="99.68400000000001" data-glyph-ascender="76.68" data-glyph-descender="-23.004000000000005"></path><path d="M18.02-48.00L48.23-48.00L54.06-4.60L40.87-4.60L39.34-16.41L20.93-16.41L15.80-4.60L3.30-4.60L20.24-45.85L18.02-48.00ZM36.42-40.64L31.29-40.64L23.92-23.77L38.65-23.77L36.42-40.64Z" transform="translate(283.2996299941312 306.72) " fill="#2e3192" stroke="#2e3192" stroke-width="0.128" data-glyph-w="60.77982749853279" data-glyph-h="99.68400000000001" data-glyph-ascender="76.68" data-glyph-descender="-23.004000000000005"></path></g></svg></g>
        </g><g id="shape_e8WxWvrLup" class="brand_slogan"  ref="shape_e8WxWvrLup" key="shape_e8WxWvrLup" transform="translate(295.85113699207,258.04556427539) rotate(0,155.09357347496,93.2) scale(1,1)" style="cursor:move;display:inline;opacity:1;" filter="">
            <g style="display:inline"><svg xmlns="http://www.w3.org/2000/svg" version="1.1" xmlns:xlink="http://www.w3.org/1999/xlink" width="528.2" height="186.4" viewBox="0 0 528.2 186.4" preserveAspectRatio="none" data-parent="shape_e8WxWvrLup"><rect fill="rgba(0,0,0,0)" width="427" height="30" x="25.3" y="78.2"></rect><g data-width="426.02669999999995" transform="translate(25.3, 0)"><path d="M2.88-15.84L16.50-15.84Q16.85-15.84 17.15-15.71Q17.46-15.58 17.67-15.36Q17.89-15.13 17.96-14.83Q18.04-14.52 17.94-14.14L17.94-14.14L16.24-1.52L2.63-1.52Q2.28-1.52 1.97-1.64Q1.67-1.77 1.45-2.00Q1.24-2.23 1.16-2.54Q1.09-2.86 1.19-3.21L1.19-3.21L2.88-15.84ZM13.08-13.41L7.26-13.41L6.05-3.95L11.64-3.95L13.08-13.41Z" transform="translate(0 101.2) " fill="#2e3192" stroke="#2e3192" stroke-width="0.042" data-glyph-w="19.1268" data-glyph-h="32.89" data-glyph-ascender="25.3" data-glyph-descender="-7.59"></path><path d="M2.35-15.84L16.67-15.84L16.45-13.41L7.69-13.41L7.21-9.29L15.23-9.29L14.98-6.86L6.73-6.86L6.00-1.52L1.14-1.52L3.09-14.88L2.35-15.84Z" transform="translate(19.1268 101.2) " fill="#2e3192" stroke="#2e3192" stroke-width="0.042" data-glyph-w="17.6847" data-glyph-h="32.89" data-glyph-ascender="25.3" data-glyph-descender="-7.59"></path><path d="M2.35-15.84L16.67-15.84L16.45-13.41L7.69-13.41L7.21-9.29L15.23-9.29L14.98-6.86L6.73-6.86L6.00-1.52L1.14-1.52L3.09-14.88L2.35-15.84Z" transform="translate(36.811499999999995 101.2) " fill="#2e3192" stroke="#2e3192" stroke-width="0.042" data-glyph-w="17.6847" data-glyph-h="32.89" data-glyph-ascender="25.3" data-glyph-descender="-7.59"></path><path d="M2.23-15.84L8.07-15.84L5.87-1.52L1.26-1.52L2.96-14.88L2.23-15.84Z" transform="translate(54.496199999999995 101.2) " fill="#2e3192" stroke="#2e3192" stroke-width="0.042" data-glyph-w="9.3357" data-glyph-h="32.89" data-glyph-ascender="25.3" data-glyph-descender="-7.59"></path><path d="M2.63-1.52L2.63-1.52Q2.28-1.52 1.97-1.64Q1.67-1.77 1.45-2.00Q1.24-2.23 1.16-2.54Q1.09-2.86 1.19-3.21L1.19-3.21L2.88-15.84L18.19-15.84L17.94-13.41L7.26-13.41L6.05-3.95L15.51-3.95L16.72-4.91L16.24-1.52L2.63-1.52Z" transform="translate(63.83189999999999 101.2) " fill="#2e3192" stroke="#2e3192" stroke-width="0.042" data-glyph-w="19.2027" data-glyph-h="32.89" data-glyph-ascender="25.3" data-glyph-descender="-7.59"></path><path d="M2.35-15.84L16.19-15.84L15.96-13.41L7.94-13.41L7.46-10.27L14.98-10.27L14.75-7.84L6.96-7.84L6.48-3.95L14.98-3.95L14.75-1.52L1.14-1.52L3.09-14.88L2.35-15.84Z" transform="translate(83.03459999999998 101.2) " fill="#2e3192" stroke="#2e3192" stroke-width="0.042" data-glyph-w="17.204" data-glyph-h="32.89" data-glyph-ascender="25.3" data-glyph-descender="-7.59"></path><path d="" transform="translate(100.23859999999999 101.2) " fill="#2e3192" stroke="#2e3192" stroke-width="0.042" data-glyph-w="10.0694" data-glyph-h="25.3" data-glyph-ascender="22.264" data-glyph-descender="-3.036"></path><path d="M2.88-15.84L16.50-15.84Q16.85-15.84 17.15-15.71Q17.46-15.58 17.67-15.36Q17.89-15.13 17.96-14.83Q18.04-14.52 17.94-14.14L17.94-14.14L16.24-1.52L2.63-1.52Q2.28-1.52 1.97-1.64Q1.67-1.77 1.45-2.00Q1.24-2.23 1.16-2.54Q1.09-2.86 1.19-3.21L1.19-3.21L2.88-15.84ZM13.08-13.41L7.26-13.41L6.05-3.95L11.64-3.95L13.08-13.41Z" transform="translate(110.30799999999999 101.2) " fill="#2e3192" stroke="#2e3192" stroke-width="0.042" data-glyph-w="19.1268" data-glyph-h="32.89" data-glyph-ascender="25.3" data-glyph-descender="-7.59"></path><path d="M2.35-15.84L16.67-15.84L16.45-13.41L7.69-13.41L7.21-9.29L15.23-9.29L14.98-6.86L6.73-6.86L6.00-1.52L1.14-1.52L3.09-14.88L2.35-15.84Z" transform="translate(129.4348 101.2) " fill="#2e3192" stroke="#2e3192" stroke-width="0.042" data-glyph-w="17.6847" data-glyph-h="32.89" data-glyph-ascender="25.3" data-glyph-descender="-7.59"></path><path d="" transform="translate(147.1195 101.2) " fill="#2e3192" stroke="#2e3192" stroke-width="0.042" data-glyph-w="10.0694" data-glyph-h="25.3" data-glyph-ascender="22.264" data-glyph-descender="-3.036"></path><path d="M2.10-15.84L18.39-15.84L16.67-3.21Q16.67-2.48 16.08-2.00Q15.48-1.52 14.75-1.52L14.75-1.52L1.14-1.52L2.83-14.88L2.10-15.84ZM13.54-13.41L7.69-13.41L6.25-3.95L12.07-3.95L13.54-13.41Z" transform="translate(157.1889 101.2) " fill="#2e3192" stroke="#2e3192" stroke-width="0.042" data-glyph-w="19.5316" data-glyph-h="32.89" data-glyph-ascender="25.3" data-glyph-descender="-7.59"></path><path d="M2.35-15.84L16.19-15.84L15.96-13.41L7.94-13.41L7.46-10.27L14.98-10.27L14.75-7.84L6.96-7.84L6.48-3.95L14.98-3.95L14.75-1.52L1.14-1.52L3.09-14.88L2.35-15.84Z" transform="translate(176.7205 101.2) " fill="#2e3192" stroke="#2e3192" stroke-width="0.042" data-glyph-w="17.204" data-glyph-h="32.89" data-glyph-ascender="25.3" data-glyph-descender="-7.59"></path><path d="M1.87-15.84L7.69-15.84L6.00-3.95L15.46-3.95L15.23-1.52L2.61-1.52Q1.87-1.52 1.51-2.00Q1.14-2.48 1.14-3.21L1.14-3.21L2.61-14.88L1.87-15.84Z" transform="translate(193.9245 101.2) " fill="#2e3192" stroke="#2e3192" stroke-width="0.042" data-glyph-w="16.217299999999998" data-glyph-h="32.89" data-glyph-ascender="25.3" data-glyph-descender="-7.59"></path><path d="M2.10-15.84L7.69-15.84L6.00-3.95L11.82-3.95L13.54-15.13L12.55-15.84L18.39-15.84L16.45-1.52L2.61-1.52Q1.87-1.52 1.51-2.00Q1.14-2.48 1.14-3.21L1.14-3.21L2.83-15.13L2.10-15.84Z" transform="translate(210.1418 101.2) " fill="#2e3192" stroke="#2e3192" stroke-width="0.042" data-glyph-w="19.5316" data-glyph-h="32.89" data-glyph-ascender="25.3" data-glyph-descender="-7.59"></path><path d="M2.35-4.43L11.11-4.43L11.59-7.34L1.87-7.34L3.09-15.84L17.41-15.84L16.93-11.71L12.07-11.71L12.32-13.41L7.69-13.41L6.96-9.77L16.67-9.77L15.71-3.21Q15.71-2.86 15.55-2.54Q15.38-2.23 15.10-2.00Q14.83-1.77 14.48-1.64Q14.14-1.52 13.76-1.52L13.76-1.52L1.14-1.52L1.62-5.41L2.35-4.43Z" transform="translate(229.6734 101.2) " fill="#2e3192" stroke="#2e3192" stroke-width="0.042" data-glyph-w="18.5449" data-glyph-h="32.89" data-glyph-ascender="25.3" data-glyph-descender="-7.59"></path><path d="M2.23-15.84L8.07-15.84L5.87-1.52L1.26-1.52L2.96-14.88L2.23-15.84Z" transform="translate(248.2183 101.2) " fill="#2e3192" stroke="#2e3192" stroke-width="0.042" data-glyph-w="9.3357" data-glyph-h="32.89" data-glyph-ascender="25.3" data-glyph-descender="-7.59"></path><path d="M2.88-15.84L16.50-15.84Q16.85-15.84 17.15-15.71Q17.46-15.58 17.67-15.36Q17.89-15.13 17.96-14.83Q18.04-14.52 17.94-14.14L17.94-14.14L16.24-1.52L2.63-1.52Q2.28-1.52 1.97-1.64Q1.67-1.77 1.45-2.00Q1.24-2.23 1.16-2.54Q1.09-2.86 1.19-3.21L1.19-3.21L2.88-15.84ZM13.08-13.41L7.26-13.41L6.05-3.95L11.64-3.95L13.08-13.41Z" transform="translate(257.554 101.2) " fill="#2e3192" stroke="#2e3192" stroke-width="0.042" data-glyph-w="19.1268" data-glyph-h="32.89" data-glyph-ascender="25.3" data-glyph-descender="-7.59"></path><path d="M2.10-15.84L7.94-15.84L13.03-6.86L14.24-15.84L18.39-15.84L16.45-1.52L11.59-1.52L6.73-10.27L5.52-1.52L1.14-1.52L3.09-14.88L2.10-15.84Z" transform="translate(276.6808 101.2) " fill="#2e3192" stroke="#2e3192" stroke-width="0.042" data-glyph-w="19.5316" data-glyph-h="32.89" data-glyph-ascender="25.3" data-glyph-descender="-7.59"></path><path d="" transform="translate(296.2124 101.2) " fill="#2e3192" stroke="#2e3192" stroke-width="0.042" data-glyph-w="10.0694" data-glyph-h="25.3" data-glyph-ascender="22.264" data-glyph-descender="-3.036"></path><path d="M2.35-4.43L11.11-4.43L11.59-7.34L1.87-7.34L3.09-15.84L17.41-15.84L16.93-11.71L12.07-11.71L12.32-13.41L7.69-13.41L6.96-9.77L16.67-9.77L15.71-3.21Q15.71-2.86 15.55-2.54Q15.38-2.23 15.10-2.00Q14.83-1.77 14.48-1.64Q14.14-1.52 13.76-1.52L13.76-1.52L1.14-1.52L1.62-5.41L2.35-4.43Z" transform="translate(306.2818 101.2) " fill="#2e3192" stroke="#2e3192" stroke-width="0.042" data-glyph-w="18.5449" data-glyph-h="32.89" data-glyph-ascender="25.3" data-glyph-descender="-7.59"></path><path d="M2.88-15.84L16.50-15.84Q16.85-15.84 17.15-15.71Q17.46-15.58 17.67-15.36Q17.89-15.13 17.96-14.83Q18.04-14.52 17.94-14.14L17.94-14.14L16.24-1.52L2.63-1.52Q2.28-1.52 1.97-1.64Q1.67-1.77 1.45-2.00Q1.24-2.23 1.16-2.54Q1.09-2.86 1.19-3.21L1.19-3.21L2.88-15.84ZM13.08-13.41L7.26-13.41L6.05-3.95L11.64-3.95L13.08-13.41Z" transform="translate(324.82669999999996 101.2) " fill="#2e3192" stroke="#2e3192" stroke-width="0.042" data-glyph-w="19.1268" data-glyph-h="32.89" data-glyph-ascender="25.3" data-glyph-descender="-7.59"></path><path d="M2.63-1.52L2.63-1.52Q2.28-1.52 1.97-1.64Q1.67-1.77 1.45-2.00Q1.24-2.23 1.16-2.54Q1.09-2.86 1.19-3.21L1.19-3.21L2.88-15.84L18.19-15.84L17.94-13.41L7.26-13.41L6.05-3.95L15.51-3.95L16.72-4.91L16.24-1.52L2.63-1.52Z" transform="translate(343.95349999999996 101.2) " fill="#2e3192" stroke="#2e3192" stroke-width="0.042" data-glyph-w="19.2027" data-glyph-h="32.89" data-glyph-ascender="25.3" data-glyph-descender="-7.59"></path><path d="M2.23-15.84L8.07-15.84L5.87-1.52L1.26-1.52L2.96-14.88L2.23-15.84Z" transform="translate(363.15619999999996 101.2) " fill="#2e3192" stroke="#2e3192" stroke-width="0.042" data-glyph-w="9.3357" data-glyph-h="32.89" data-glyph-ascender="25.3" data-glyph-descender="-7.59"></path><path d="M2.35-15.84L16.19-15.84L15.96-13.41L7.94-13.41L7.46-10.27L14.98-10.27L14.75-7.84L6.96-7.84L6.48-3.95L14.98-3.95L14.75-1.52L1.14-1.52L3.09-14.88L2.35-15.84Z" transform="translate(372.49189999999993 101.2) " fill="#2e3192" stroke="#2e3192" stroke-width="0.042" data-glyph-w="17.204" data-glyph-h="32.89" data-glyph-ascender="25.3" data-glyph-descender="-7.59"></path><path d="M9.64-1.52L4.78-1.52L6.48-13.41L1.14-13.41L1.39-15.84L16.93-15.84L16.45-13.41L11.33-13.41L9.64-1.52Z" transform="translate(389.69589999999994 101.2) " fill="#2e3192" stroke="#2e3192" stroke-width="0.042" data-glyph-w="18.0642" data-glyph-h="32.89" data-glyph-ascender="25.3" data-glyph-descender="-7.59"></path><path d="M8.53-10.50L12.17-15.36L11.69-15.84L17.51-15.84L10.47-7.34L9.74-1.52L4.88-1.52L5.62-7.34L1.49-15.13L0.76-15.84L5.87-15.84L8.53-10.50Z" transform="translate(407.76009999999997 101.2) " fill="#2e3192" stroke="#2e3192" stroke-width="0.042" data-glyph-w="18.2666" data-glyph-h="32.89" data-glyph-ascender="25.3" data-glyph-descender="-7.59"></path></g></svg></g>
        </g>
  </svg>